<svg width="25" height="25" viewBox="0 0 25 25" fill="none" xmlns="http://www.w3.org/2000/svg">
<g clip-path="url(#clip0)">
<path d="M18.0556 9.72228C18.0556 5.88547 14.0148 2.77783 9.02778 2.77783C4.0408 2.77783 0 5.88547 0 9.72228C0 11.211 0.611979 12.5825 1.64931 13.7153C1.06771 15.0261 0.108507 16.0678 0.0954861 16.0808C0 16.1806 -0.0260417 16.3282 0.0303819 16.4584C0.0868056 16.5886 0.208333 16.6667 0.347222 16.6667C1.93576 16.6667 3.25087 16.1329 4.19705 15.5816C5.59462 16.2631 7.24826 16.6667 9.02778 16.6667C14.0148 16.6667 18.0556 13.5591 18.0556 9.72228ZM23.3507 19.2709C24.388 18.1424 25 16.7665 25 15.2778C25 12.3742 22.678 9.88721 19.388 8.84988C19.4271 9.13634 19.4444 9.42714 19.4444 9.72228C19.4444 14.3186 14.77 18.0556 9.02778 18.0556C8.55903 18.0556 8.1033 18.0209 7.65191 17.9731C9.0191 20.4688 12.2309 22.2223 15.9722 22.2223C17.7517 22.2223 19.4054 21.823 20.8029 21.1372C21.7491 21.6884 23.0642 22.2223 24.6528 22.2223C24.7917 22.2223 24.9175 22.1398 24.9696 22.0139C25.026 21.8881 25 21.7405 24.9045 21.6363C24.8915 21.6233 23.9323 20.586 23.3507 19.2709Z" fill="#018199"/>
</g>
<defs>
<clipPath id="clip0">
<rect width="25" height="25" fill="white"/>
</clipPath>
</defs>
</svg>
