<svg width="25" height="25" viewBox="0 0 25 25" fill="none" xmlns="http://www.w3.org/2000/svg">
<g clip-path="url(#clip0)">
<path d="M6.94444 20.8331C5.83333 20.8331 4.72222 19.8609 4.16667 19.4442C1.38889 17.4998 0.555556 16.8053 0 16.3887V22.222C0 22.9889 0.621962 23.6109 1.38889 23.6109H12.5C13.2669 23.6109 13.8889 22.9889 13.8889 22.222V16.3887C13.3333 16.8053 12.5 17.4998 9.72222 19.4442C9.16667 19.8609 8.05556 20.8331 6.94444 20.8331ZM12.5 12.4998H1.38889C0.621962 12.4998 0 13.1217 0 13.8887V14.5831C1.11111 15.4164 0.972222 15.4164 5 18.3331C5.41667 18.6109 6.25 19.4442 6.94444 19.4442C7.63889 19.4442 8.47222 18.6109 8.88889 18.472C12.9167 15.5553 12.7778 15.5553 13.8889 14.722V13.8887C13.8889 13.1217 13.2669 12.4998 12.5 12.4998ZM23.6111 8.33312H9.72222C8.95529 8.33312 8.33333 8.95508 8.33333 9.722V11.1109H12.5C13.9414 11.1109 15.1298 12.2142 15.2652 13.6204L15.2778 13.6109V19.4442H23.6111C24.378 19.4442 25 18.8223 25 18.0553V9.722C25 8.95508 24.378 8.33312 23.6111 8.33312ZM22.2222 13.8887H19.4444V11.1109H22.2222V13.8887ZM6.94444 9.722C6.94444 8.19032 8.19054 6.94423 9.72222 6.94423H19.4444V2.77756C19.4444 2.01063 18.8225 1.38867 18.0556 1.38867H4.16667C3.39974 1.38867 2.77778 2.01063 2.77778 2.77756V11.1109H6.94444V9.722Z" fill="#018199"/>
</g>
<defs>
<clipPath id="clip0">
<rect width="25" height="25" fill="white"/>
</clipPath>
</defs>
</svg>
