<svg width="18" height="18" viewBox="0 0 18 18" fill="none" xmlns="http://www.w3.org/2000/svg">
<path d="M15.3125 7.10938H10.3906V2.1875C10.3906 1.58354 9.90083 1.09375 9.29688 1.09375H8.20312C7.59917 1.09375 7.10938 1.58354 7.10938 2.1875V7.10938H2.1875C1.58354 7.10938 1.09375 7.59917 1.09375 8.20312V9.29688C1.09375 9.90083 1.58354 10.3906 2.1875 10.3906H7.10938V15.3125C7.10938 15.9165 7.59917 16.4062 8.20312 16.4062H9.29688C9.90083 16.4062 10.3906 15.9165 10.3906 15.3125V10.3906H15.3125C15.9165 10.3906 16.4062 9.90083 16.4062 9.29688V8.20312C16.4062 7.59917 15.9165 7.10938 15.3125 7.10938Z" fill="#FAFCFE"/>
</svg>
