<svg width="25" height="25" viewBox="0 0 25 25" fill="none" xmlns="http://www.w3.org/2000/svg">
<path d="M23.8566 6.77427C23.5839 5.7478 22.7807 4.93938 21.7609 4.66503C19.9124 4.1665 12.5 4.1665 12.5 4.1665C12.5 4.1665 5.08767 4.1665 3.2391 4.66503C2.21927 4.93942 1.41606 5.7478 1.14344 6.77427C0.648132 8.63482 0.648132 12.5167 0.648132 12.5167C0.648132 12.5167 0.648132 16.3985 1.14344 18.2591C1.41606 19.2856 2.21927 20.0603 3.2391 20.3346C5.08767 20.8332 12.5 20.8332 12.5 20.8332C12.5 20.8332 19.9123 20.8332 21.7609 20.3346C22.7807 20.0603 23.5839 19.2856 23.8566 18.2591C24.3519 16.3985 24.3519 12.5167 24.3519 12.5167C24.3519 12.5167 24.3519 8.63482 23.8566 6.77427ZM10.0757 16.0411V8.99224L16.271 12.5168L10.0757 16.0411Z" fill="#ffffff"/>
</svg>
